# xmcd CD database file
#
# Track frame offsets:
#	150
#	20790
#	43007
#	64490
#	84602
#	105187
#	132675
#	140250
#	164505
#	182270
#	207035
#	230065
#	245237
#	259427
#
# Disc length: 3707 seconds
#
# Revision: 3
# Processed by: cddbd v1.5.2PL0 Copyright (c) Steve Scherf et al.
# Submitted via: jetAudio 7
#
DISCID=d10e790e
DTITLE=Boyz II Men - II
DYEAR=1900
DGENRE=blues
TTITLE0=Thank You
TTITLE1=All Around The World
TTITLE2=U Know
TTITLE3=Vibin'
TTITLE4=I Sit Away
TTITLE5=Jezzebel
TTITLE6=Khalil(Interlude)
TTITLE7=Trying Times
TTITLE8=I'll Make Love to You
TTITLE9=On Bended Knee
TTITLE10=50 Candles
TTITLE11=Water Runs Dry
TTITLE12=Yeasterday
TTITLE13=Fallin'
EXTD=
EXTT0=
EXTT1=
EXTT2=
EXTT3=
EXTT4=
EXTT5=
EXTT6=
EXTT7=
EXTT8=
EXTT9=
EXTT10=
EXTT11=
EXTT12=
EXTT13=
PLAYORDER=
